<?xml version="1.0" encoding="utf-8"?>
<!-- Generator: Adobe Illustrator 19.2.1, SVG Export Plug-In . SVG Version: 6.00 Build 0)  -->
<svg version="1.1" id="Capa_1" xmlns="http://www.w3.org/2000/svg" xmlns:xlink="http://www.w3.org/1999/xlink" x="0px" y="0px"
	 viewBox="0 0 264.9 150.1" style="enable-background:new 0 0 264.9 150.1;" xml:space="preserve">
<style type="text/css">
	.st0{fill:#FFFFFF;}
	.st1{fill:#37A58B;}
	.st2{fill:#97BE44;}
	.st3{fill:#E2231A;}
</style>
<g>
	<g>
		<g>
			<path class="st0" d="M253.2,50.9c-5-2.4-13.2-0.1-25,7c-4,2.4-7.7,5-10.5,7c0.6-2,1.1-3.8,1.5-5.2c3.4-11.7,1.1-16.5,0.3-17.7
				c-1-1.5-2.5-2.5-4.4-2.7c-0.1,0-0.2,0-0.3,0c-0.3-0.1-0.6-0.1-1-0.1c-0.5,0-1.1,0-1.5,0c-0.7,0-1.4,0-2.1,0.1
				c-0.2,0-0.5,0.1-0.7,0.1c-3.2,0.6-3.8,3-3.9,4.1c-0.2,2.1-0.6,4-0.9,4.8c-0.4,1.1-1.5,4.1-3.1,8.3c-1.6,3.5-3.7,7.5-6.1,11.3
				c1.3-3.2,1.9-4.7,2.6-7.4c0-0.1,0-0.1,0-0.2c2.1-11.3-4.7-15.1-7-16c-0.3-0.1-0.7-0.3-1.2-0.4l-0.4-0.1c-0.9-0.3-1.8-0.4-2.8-0.5
				c0,0-0.1,0-0.1,0c-0.5,0-1,0-1.5,0.1c2.1-4.9,3.8-10.5,4.9-16.9c1.4-8.3-0.1-13.9-4.5-16.6c-5.5-3.3-12.8-0.2-14.8,1.3
				c-0.8,0.6-7.9,6.1-15.2,16.7c-0.1,0.1-0.2,0.2-0.2,0.4c-1.1,1.7-2.2,3.4-3.2,5.1c-0.5-0.4-1.1-0.9-2-1.1
				c-0.8-0.2-1.6-0.4-2.5-0.6c0,0,0,0,0,0c-0.1,0-0.1,0-0.2,0l-1-0.1c-1-0.1-2-0.1-2.8-0.1l-0.2,0c-3.1,0.2-5.5,0.9-7.4,2.4
				c-0.5,0.4-0.9,0.7-1.2,1.1c-1.2,1.1-1.9,2.3-2.1,2.7c-2.1,3.2-3.1,6.9-3.3,8.5c-0.2,1.4,0.4,2.7,1.5,3.7c0.1,0.1,0.1,0.1,0.2,0.2
				c-2.2,0.8-4.4,2.1-6.3,4.4l-0.1,0.1c0,0.1-0.1,0.1-0.1,0.2l-0.1,0.2c-0.1,0.1-0.1,0.1-0.3,0.4l0,0c-5.7,7.7-7.7,18.4-9.2,26.2
				l-0.1,0.7c0,0.2-0.1,0.4-0.1,0.7c-0.1,0.3-0.1,0.6-0.1,0.8c-1.2,0.9-3.4,2.6-4.2,3.1c-0.6,0.4-1.5,1-2.4,1.5
				c0-0.2,0.1-0.4,0.1-0.6c0.3-1.5,0.8-2.9,1.3-4.3c0.9-2.7,2.2-6.4,0.6-9.2c1.4-0.3,2.6-1.2,3.3-2.4c1.3-2.2,0.8-5.2-1.4-9.1
				c-0.6-1.1-5.7-9.3-20.7-4.8c-4,1.2-7.6,3.6-10.7,6.8c0.8-3.5,1.3-7.1,1.1-10.4c0-0.1,0-0.1,0-0.2c-0.3-2.6-0.9-5.1-1.8-7.2
				c0-0.1-0.1-0.2-0.1-0.3c-9.1-17-27.7-16.7-29.8-16.5c-7.7,0.3-14.2,1.2-19.4,2.7c-6.4,2-7.3,5.5-8.1,8.5
				c-0.1,0.4-0.2,0.9-0.3,1.3c-0.8,2.4-0.5,4.8,0.8,6.2c0.9,1,2.1,1.4,3.3,1.2c1-0.2,2.1-0.4,3.1-0.6C25.9,59.1,18.6,80.5,14,95.6
				c-0.1,0.2-0.1,0.3-0.2,0.5l-0.6,2c-1.1,3.7-2,6.6-2.5,8.7l-0.1,0.3c-0.7,2.1-3.7,12.1,1.4,16.3c0.1,0,0.1,0.1,0.2,0.1
				c0.2,0.1,0.3,0.3,0.6,0.5c1.2,1,3.5,2.8,6.9,4.3c0.1,0,0.1,0.1,0.2,0.1c0.2,0.1,0.5,0.2,0.7,0.3c1.3,0.5,3.1,1.1,5,1.1
				c1.4,0,3-0.3,4.5-1.3c1.6-1.1,5.6-4.1,9.6-7.4c0.9-0.7,3.1-2.5,4-3.3c0.3-0.3,0.8-0.7,1.2-1.1c4.2-3.5,9.8-8.5,13-12.2
				c1.8-1.9,4.8-5.3,8.1-9.7c-0.1,0.7-0.2,1.3-0.2,1.8c-0.4,5,1.8,10,5.6,13.1c2.2,1.8,4.7,2.7,7.2,2.7c0.9,0,1.8-0.1,2.7-0.4
				c0.6-0.1,1.2-0.4,1.8-0.7c0.7-0.4,1.3-0.8,1.9-1.2c2.7-2,5.1-4.8,7.4-8.5c0.6,1.5,1.5,2.7,2.6,3.5c1.2,0.9,3.2,1.8,6,1
				c3.7-1.1,9.1-4.1,13.4-7.4c0.5,2.3,1.7,4.6,4.1,6.2c1.4,1,3.1,1.4,4.9,1.3c1.8-0.1,6.5-1.5,16.6-10.6c1.5,1.8,3,2.7,3.7,3.1
				c0.3,0.2,0.7,0.4,1,0.6c9.2,5.1,20.7,1.2,26.9-9.1c0.3-0.6,0.6-1.1,0.9-1.6c0.5,1,1.1,1.9,1.8,2.8c3,4.6,7.2,6.7,11.9,6.2
				c-3.4,8.3-8.7,21-13.7,31.2c0,0.1-0.1,0.1-0.1,0.2c-0.5,1.2-0.3,2.6,0.5,3.6c0.9,1,2.1,1.4,3.4,1.4c0.9,0,1.9-0.2,2.9-0.4
				c0.2-0.1,0.5-0.1,0.8-0.1c4.1-0.7,11.8-1.9,20.3-22.7c4.9-11.9,10.2-25.7,14.1-36.5c0,0,0,0,0.1,0c0.3,0,0.5,0,0.8-0.1
				c0.1,0,9.7-2.6,19.2-5.9c19.3-6.6,21.2-9.7,21.4-12.4C256.3,54.6,256.2,52.3,253.2,50.9z M143.8,50.8
				C143.8,50.8,143.8,50.9,143.8,50.8C143.7,50.9,143.7,50.9,143.8,50.8C143.7,50.8,143.8,50.8,143.8,50.8z"/>
			<path class="st0" d="M232.5,76.7c-7.4-1.3-14.5-1.9-14.8-1.9c-1.5-0.1-2.8,0.8-3.2,2.2c-0.4,1.4,0.4,2.9,1.7,3.5
				c18,8,25.9,9.8,29.7,9.8c2.2,0,2.9-0.6,3.4-1c1.2-1,1.6-2.5,1.2-4.1C249.8,82.5,247.1,79.3,232.5,76.7z"/>
		</g>
		<path class="st1" d="M251.9,53.6c-9.6-4.6-37.2,17.3-37.2,17.3S261.5,58.2,251.9,53.6z"/>
		<path class="st2" d="M217.5,77.8c0,0,31.7,14.1,30.2,8.2C246.1,80.1,217.5,77.8,217.5,77.8z"/>
		<path class="st3" d="M142.6,48.1c2-0.6,5.1-5.7,6.7-8.4c0.4-0.5,0.7-1.1,0.9-1.6c0,0,0,0,0,0l0,0c0.6-1.3,0.5-2.4-0.9-2.9
			c-0.7-0.2-1.5-0.4-2.3-0.5c0,0,0,0,0,0c-0.1,0-0.2,0-0.2,0c-0.1,0-0.2,0-0.3,0c-0.1,0-0.2,0-0.3,0c-0.8-0.1-1.6-0.1-2.3-0.1
			c-0.1,0-0.2,0-0.2,0c-3.1,0.1-4.7,1-5.7,1.8c-0.3,0.3-0.7,0.5-1,0.9c0,0,0,0,0,0c-1,0.9-1.5,1.9-1.5,1.9l0,0
			c-1.8,2.7-2.8,6.1-3,7.4C132.2,48.9,139.9,48.9,142.6,48.1z"/>
		<path class="st3" d="M78.6,54.4c-0.3-2.1-0.8-4.4-1.6-6.5c-8.6-16.1-26.6-15-27-15c-7.8,0.3-14,1.3-18.6,2.6
			c-5.6,1.8-5.4,4.2-6.5,7.8c-0.7,2.2,0,3.7,0.8,3.6c2.3-0.4,5.3-1.2,7.5-1.6c0.3-0.1,0.6,0.2,0.5,0.5c-1.7,4.9-11.3,32.9-16.9,51.1
			l-0.1,0.1l-0.6,2c-1,3.4-1.9,6.4-2.5,8.7l-0.1,0.4c0,0-3.4,9.9,0.4,13.1c0.9,0.7,3.2,2.8,7,4.4c2,0.7,5,2.1,7.6,0.4
			c1.4-0.9,5.1-3.7,9.4-7.2c0.7-0.6,3-2.4,3.9-3.2c0.3-0.2,0.7-0.7,1.3-1.1c5-4.2,9.9-8.7,12.7-11.9c0,0,0,0,0,0
			c2.7-2.9,7.8-8.6,12.7-16.4C69.4,84.3,79.4,67.1,78.6,54.4z M65.2,60.3c-7,18.8-28.4,41.5-28.4,41.6c-1.9,1.9-4.4,4.1-7,6.2
			c-0.1,0.1-0.1,0.1-0.2,0.2c-0.1,0.1-0.3,0.2-0.4,0.3c0,0,0,0,0,0c-3.8,2.7-3.1-0.8-2.2-3.8c0.4-1,0.8-2,1.2-3l0,0v0
			c4.2-11,9.4-23.1,9.5-23.2C41.4,67.4,51,45.2,51,45.2c1-2.9,2.6-3.1,6.2-2.8C61.9,43.3,69.1,46.8,65.2,60.3z"/>
		<path class="st3" d="M216.3,58.9c0,0,4.7-15.9-1.5-16.6c-0.1,0-0.2,0-0.3,0c-0.2,0-0.4-0.1-0.6-0.1c0,0,0,0-0.1,0
			c-0.5,0-1,0-1.4,0c-0.6,0-1.2,0-1.9,0c0,0-0.1,0-0.1,0.1c-1.1,0.1-1.6,0.5-1.7,1.5c-0.2,2.2-0.7,4.3-1,5.4c-0.5,1.5-2,5.5-3.2,8.6
			c-3.9,8.4-9.6,18.2-16.6,23.6c-0.6,0.5-1.2,0.2-0.9-0.6l3.4-8c0.2-0.4,0.3-0.7,0.3-0.7c3-7.2,3.8-8.7,4.7-12.2
			c1.7-8.8-3-11.8-5.1-12.7c-0.3-0.1-0.6-0.2-1-0.3c-0.1,0-0.2-0.1-0.4-0.1c-0.6-0.2-1.4-0.3-2.2-0.4c-2-0.1-2.3,1-2.4,1.2
			c-0.5,1.4,0.9,2.5,1.1,2.7c3.2,2.6-5,13.6-9,21.5c0,0,0,0,0,0.1c-0.2,0.5-0.4,1-0.6,1.4c-1.5,3.5-2,6.8-1.7,9.6l0,0c0,0,0,0,0,0
			c0.3,2.7,1.3,5,2.8,6.7c2.5,3.9,7.1,7.3,14.7,3.1c-3.6,9.1-10.2,25.2-16.2,37.4c-0.2,0.5,0.2,1.2,3.4,0.5
			c3.3-0.7,10.3,0.1,19-21.1C205.7,90.1,214,68,216.3,58.9L216.3,58.9z"/>
		<path class="st3" d="M172.6,13.6c-2,1.5-8.4,6.9-14.6,16.2c0,0,0,0,0,0c0,0,0,0.1-0.1,0.1c-2.7,4-5.3,8.6-7.6,13.9
			c-0.2,0.4-0.3,0.7-0.4,1c-3.3,6.8-5.7,12.7-7.4,17.8c-1.2,3.1-1.9,5.6-2.2,8c-1.2,5.3-1.4,9.6-1.1,13c-1.3,2-3.6,4.3-5.6,5.5
			c-3.6,2.2-5.6,2.5-5.7-0.1c-0.2-2.3-0.2-10.8,7.7-26.6l1.3-2.2c1-1.5,1.6-2.1,4.1-5.3c0.1-0.2,0.2-0.4,0.3-0.6
			c0.5-0.9,0.4-1.8-0.5-2c-0.5-0.1-0.5-0.1-1.3-0.2c0,0-7.7-1.5-12.3,4.1l-0.1,0.1c0,0-0.2,0.2-0.2,0.2c-0.2,0.2-0.1,0.1-0.3,0.3
			c-5.5,7.4-7.3,17.9-8.8,25.7c0,0.2-0.1,0.4-0.1,0.6c-0.2,0.9-0.2,1.2-0.3,1.9c-0.6,0.5-4.2,3.3-5.4,4.1c-5.3,3.4-8.4,5.1-6.8-2.3
			c1.2-5.8,4.9-10.7,0.6-12.8c-0.7-0.2-5-1.4-8.1,2.8c-2.6,3.7-4.4,6.5-8.3,11.8c-2.5,3.3-7.3,11-8.6,9.7c-0.8-0.7-0.6-4.9-0.3-7.5
			c1.1-9.4,6.1-17.3,12.5-21.5c8.8-5.8,11.8-0.8,12.6,0.3c0.5,0.6,1.8,1.5,3.1,1.5c2.2-0.1,3.5-2,0.6-7.3c0,0-3.7-7.4-17.3-3.4
			c-14.1,4.1-22.5,27.1-23.2,36c-0.6,7.5,6,14.1,11.7,12.3c0.3-0.1,0.7-0.2,1.1-0.4c0,0,0,0,0.1,0c0.5-0.3,1-0.6,1.5-1
			c2.7-2,6.7-6.1,10.9-15.9c0.1,0-0.8,13.4,6.2,11.4c5.3-1.5,14.3-7.4,17-11.6c-0.1,0.6-0.1,0.6-0.2,1.2c0,0,0,0.1,0,0.1l0,0
			c-0.2,3.8,0.1,7.5,3.2,9.6c1,0.7,2,0.9,3,0.7c0,0,4.2,0.3,17.5-12.4c1.4,3.8,4.5,5.2,4.5,5.2c0.3,0.2,0.6,0.4,1,0.6
			c8.1,4.6,17.8,0.4,22.9-8.1c5.1-8.5,5.5-15.1,5.5-16.2c0-1.1-0.6-0.9-1.1,0c-0.2,0.4-6.5,9.3-13.7,15.4c-8.4,6.6-7.2-4.1-6.9-6.6
			c0-0.2,0.1-0.3,0.1-0.5c3.4-3.4,7.1-7.3,11.2-11.8c0.9-0.9,1.9-1.9,2.9-3.1c0.3-0.4,0.6-0.8,1-1.2c0,0,0,0,0,0l0,0
			c7.3-8.7,15.8-19.9,18.9-38.6C190.4,6.5,175.4,11.5,172.6,13.6z M178.7,31.7c-0.2,0.7-0.4,1.4-0.6,2.1c0,0-0.1,0.3-0.3,0.8
			c-0.4,1.4-1,3.1-1.7,4.9c-0.7,1.9-1.5,4-2.5,5.9c-3.7,7.8-9.6,17.5-19.1,27.1c-0.1,0.1-0.2,0.3-0.4,0.4l0,0
			c1-4.6,2.3-8.8,3.7-12.5c0.1-0.3,0.2-0.5,0.3-0.8c0.1-0.1,0.1-0.3,0.2-0.4c0.1-0.3,0.2-0.6,0.4-0.9c0.3-0.8,0.7-1.6,1-2.4
			c0,0,0,0,0,0c0.2-0.4,0.3-0.7,0.4-1c0-0.1,0-0.1,0.1-0.2c0.1-0.3,0.3-0.6,0.4-0.9c0-0.1,0.1-0.2,0.1-0.2c0.1-0.3,0.2-0.5,0.4-0.7
			c0.1-0.1,0.1-0.2,0.2-0.3c0.1-0.2,0.2-0.4,0.3-0.6c0.1-0.2,0.2-0.3,0.2-0.5c0.1-0.1,0.1-0.3,0.2-0.4c0.1-0.3,0.3-0.6,0.4-0.8
			c0,0,0,0,0,0l0.2-0.2c6.2-12,14.2-22.5,14.2-22.5s0.1-0.1,0.2-0.2c1.1-1.5,1.6-1.7,1.9-1.7C179.8,25.6,180.1,26.6,178.7,31.7z"/>
		<g>
			<path class="st0" d="M69.7,118.7C69.7,118.7,69.7,118.7,69.7,118.7c-0.3-0.1-0.6-0.2-0.9-0.2c0,0-0.2,0-0.2,0l-0.4,0
				c-0.4,0-0.8-0.1-1.2,0c-1.3,0.1-2.5,0.5-3.3,1.1c-0.2,0.2-0.4,0.3-0.5,0.4c-0.6,0.5-0.9,1.1-1,1.2c-0.5,0.9-1,2-1.2,2.9
				c-2.5-1.6-6-0.1-7.4,0.6c-1.1,0.5-2,1.2-2.7,1.9c0,0-0.1,0.1-0.1,0.1c-0.7,0.8-1.2,1.7-1.5,2.6c-0.3,1.1-0.4,2.3-0.1,3.3
				c0.1,0.3,0.2,0.7,0.3,1c-0.9,0.4-2,1.3-2.8,3.1c0,0,0,0.1-0.1,0.1c0,0.1-0.1,0.1-0.1,0.1c-0.3,0.6-0.4,1.1-0.4,1.2
				c-0.7,2.3-0.1,3.8,0.5,4.8c0.9,1.3,2.3,2.2,4.2,2.4c0,0,0.1,0,0.1,0c0.3,0,0.7,0.1,1,0.1c2.7,0,4.7-1.2,6.1-2.5
				c0.2,0.2,0.4,0.3,0.6,0.5c0.7,0.5,1.5,0.7,2.3,0.7c0.1,0,0.3,0,0.4,0c0.6-0.1,4-0.6,7.2-5.2c1.2-1.6,2-3.4,2.3-4
				c1.3-2.6-0.1-4-0.7-4.4c-0.8-0.6-1.6-0.7-2.3-0.5c0,0,0,0,0-0.1c0.2-0.2,0.3-0.4,0.6-0.8c0.1-0.1,0.2-0.2,0.3-0.4l0.1-0.2
				c0.2-0.4,0.3-0.8,0.4-1.2c0.7-0.6,1.3-1.5,2.1-2.8c0.2-0.3,0.3-0.6,0.5-0.8c0,0,0-0.1,0-0.1c0.4-1,0.4-2.1,0-3
				C71.5,119.6,70.7,119,69.7,118.7z"/>
			<path class="st0" d="M99.7,122.2c-0.1-0.5-0.3-1-0.6-1.4c0,0-0.1-0.1-0.1-0.1c-0.1-0.1-0.1-0.2-0.1-0.2c0,0-0.1-0.1-0.1-0.1
				c-0.2-0.3-0.4-0.6-0.7-0.8c-0.1-0.1-0.2-0.2-0.3-0.2c-2.5-1.9-6.2-0.4-7.7,0.4c-1.1,0.5-2,1.2-2.7,1.9c0,0,0,0,0,0
				c-0.1,0.1-0.1,0.1-0.1,0.2c-0.2,0.2-0.4,0.5-0.6,0.7c-0.3-0.2-0.6-0.4-0.9-0.5c-0.2-0.1-0.4-0.2-0.6-0.2c0,0-0.1,0-0.1,0
				c-0.1,0-0.3-0.1-0.4-0.1c-4.1-0.7-7.6,1-9.7,4.6c0,0,0,0.1-0.1,0.1c-0.7,1.3-1.3,2.7-1.7,4.4l0,0.1c0,0,0,0.2-0.1,0.2
				c-0.1,0.5-0.2,1.1-0.3,1.6c0,0,0,0.2,0,0.2c-0.2,3,1.1,4.9,1.7,5.6c0,0,0.1,0.1,0.1,0.1l0.1,0.1c0.1,0.1,0.1,0.1,0.2,0.2
				c0,0,0,0,0,0c0,0,0,0,0,0c0.3,0.2,0.5,0.5,0.8,0.7c0,0,0.1,0.1,0.1,0.1l0.2,0.2c0.2,0.1,0.4,0.3,0.6,0.4c0,0,0.1,0.1,0.1,0.1
				c0.7,0.4,1.4,0.6,2.1,0.7c0.1,0,0.2,0,0.2,0c0.1,0,0.1,0,0.2,0c0.2,0,0.5,0,0.6,0c0,0,0.1,0,0.2,0c0,0,0.1,0,0.1,0
				c0.2,0,0.4,0,0.6,0c2-0.2,3.6-0.8,4.6-1.4c0.6,0.3,1.2,0.5,2,0.6c0,0,0.1,0,0.2,0c5.8,0.7,8.8-4.5,9.3-5.3
				c2.2-3.5,1.4-6.4-0.2-8.3c0,0,0,0,0.1,0l0.1,0c0.4-0.1,1.1-0.2,1.7-0.7c0.1-0.1,0.2-0.2,0.3-0.3c0.5-0.6,0.9-1.3,1-2.1
				c0-0.1,0-0.2,0-0.3c0-0.4,0-0.7-0.1-0.9C99.8,122.4,99.7,122.3,99.7,122.2z"/>
			<path class="st0" d="M167.9,121.1c0.5-1.7,0.8-4.2-1-6.2c0,0-0.1-0.1-0.1-0.1c-0.5-0.6-1.2-1.1-2-1.5c-0.2-0.1-0.4-0.2-0.6-0.2
				c0,0-0.1,0-0.1,0c-0.1,0-0.3-0.1-0.4-0.1c-3.3-0.5-6.2,0.4-8.3,2.7c-0.2-0.1-0.4-0.3-0.6-0.4c-0.5-0.3-1.1-0.5-1.8-0.6
				c-0.5-0.1-1-0.2-1.5-0.2c-0.4,0-0.8,0-1.2,0.1c0.5-1.5,0.9-3,1.2-4.6c0.7-4.3-0.9-6.3-2.3-7.2c-2.3-1.4-5.4-0.6-6.8,0.5
				c-0.3,0.2-2.7,2.1-5.1,5.6c-0.1,0.1-0.1,0.2-0.2,0.2c-1,1.5-1.9,3.1-2.6,4.8l-0.1,0.2c-0.6,1.2-1.1,2.4-1.6,3.6
				c-0.9-0.5-1.9-0.7-3-0.6c-0.9,0.1-1.9,0.5-2.8,1.2c-0.1-0.1-0.1-0.1-0.2-0.2c-0.1-0.1-0.1-0.1-0.2-0.2c0,0-0.1-0.1-0.1-0.1
				c-0.3-0.2-0.6-0.4-1-0.7c-0.3-0.1-0.5-0.2-0.5-0.2c-0.2-0.1-0.5-0.2-0.7-0.2c0,0-0.1,0-0.1,0c-0.2-0.1-0.4-0.1-0.6-0.1
				c0,0-0.2,0-0.2,0c-0.3,0-0.6,0-0.9,0.1l0.3-0.6c0.3-0.4,0.4-0.7,0.8-1.3c0.2-0.3,0.5-0.8,0.9-1.3c0.1-0.1,0.1-0.2,0.2-0.4
				l0.1-0.2c1.2-2.3,0.4-4-0.7-4.8c-0.3-0.2-0.4-0.3-0.6-0.4c-1.5-0.9-5.1-1.6-7.9,2.5c0,0-0.1,0.1-0.1,0.1l0,0
				c-0.1,0.1-0.1,0.1-0.1,0.2c-0.5,0.8-1,1.7-1.6,2.9c0,0-0.1,0.1-0.1,0.2c-0.7,1.6-1.3,3.2-1.9,4.7c-0.7,0.1-1.5,0.2-2.2,0.4
				c-5.8,1.6-8.7,9.7-9,12.8c-0.2,2.1,0.7,4.1,2.3,5.5c1.4,1.2,3.2,1.6,4.7,1.1c0.4-0.1,0.7-0.2,1-0.4c0.3-0.2,0.6-0.3,0.8-0.5l0,0
				c0.4,0.4,0.8,0.7,1.3,0.9c0.6,0.3,1.2,0.4,1.9,0.4c1.6,0,3.3-0.7,5.3-2.3c0.4,0.1,0.8,0.2,1.2,0.2c0,0,0,0,0,0c0.2,0,0.4,0,0.5,0
				l0,0c0.1,0,0.2,0,0.3,0c0,0,0.2,0,0.2,0l0.5-0.1c0.1,0,0.2,0,0.3,0l0.2,0c0.1,0,0.2,0,0.3-0.1l0.3-0.1c0.1,0,0.2-0.1,0.3-0.1
				c0.6-0.2,1.5-0.7,2.4-1.7c0.2,0.3,0.5,0.5,0.7,0.7c0.6,0.5,1.3,0.8,2,1c0.6,0.2,1.3,0.2,2.1,0.2c0,0,0.1,0,0.2,0
				c0.7-0.1,1.5-0.4,2.2-0.8c0.1,0,0.2-0.1,0.2-0.2c0,0,0,0,0.1,0c0.2-0.1,0.4-0.2,0.5-0.4c0.1,0,0.2-0.1,0.2-0.1
				c0.4-0.3,0.8-0.6,1.2-0.9c0,0,0.1,0.1,0.1,0.1c0.1,0.1,0.2,0.1,0.3,0.2c3.1,1.7,6.8,1.1,9.5-1.5c0.1,0.1,0.2,0.1,0.2,0.2
				c0.4,0.3,0.7,0.5,1.1,0.6c0.3,0.2,0.6,0.3,0.7,0.3c0.1,0,0.3,0.1,0.5,0.1c0,0,0,0,0,0c1.7,0.5,3.6,0.3,5.6-0.5l0.1-0.1
				c0.1,0,0.2-0.1,0.2-0.1c0.6-0.3,1.2-0.6,1.6-1c0.4-0.3,0.7-0.5,1.1-0.8c0.2,0.1,0.4,0.2,0.5,0.3c0,0,0.1,0.1,0.1,0.1
				c0.7,0.4,1.4,0.6,2.1,0.7c0.1,0,0.2,0,0.2,0c0.1,0,0.2,0,0.2,0c0.2,0,0.5,0,0.7,0c0,0,0.2,0,0.2,0c0.2,0,0.4,0,0.6,0
				c3.4-0.3,5.4-1.9,6-2.4c0,0,0.1-0.1,0.1-0.1c0.2-0.2,0.5-0.5,0.7-0.7l0.3-0.3c0.3-0.3,0.4-0.4,0.6-0.7c0,0,0.1-0.1,0.1-0.1
				l0.2-0.3c0,0,0.1-0.1,0.1-0.2l0.2-0.3c0,0,0-0.1,0.1-0.1l0.3-0.4c0.3-0.4,0.6-0.9,0.7-1.3c0,0,0.1-0.1,0.1-0.2
				c0-0.1,0.1-0.1,0.1-0.2l0.1-0.2C169.7,123.6,169.2,122,167.9,121.1z M116.6,111.2L116.6,111.2L116.6,111.2L116.6,111.2z
				 M166.7,126.5L166.7,126.5L166.7,126.5L166.7,126.5z"/>
		</g>
		<g>
			<path class="st3" d="M66.5,134.3c-0.1,0.1-0.1,0.1-0.1,0.1c0,0,0,0,0,0c-0.4,0.5-0.8,0.9-1.2,1.3l0,0c0,0-0.1,0-0.1,0.1
				c-0.3,0.3-0.5,0.5-0.8,0.7c-0.1,0.1-0.3,0.2-0.4,0.3c-0.9,0.5-1.1,0.5-1.2,0.4c0,0-0.1-0.1-0.1-0.3c0-0.4-0.1-2.8,2.2-7.5
				l0.4-0.6c0.2-0.3,0.3-0.4,0.6-0.8c0.1-0.2,0.3-0.4,0.6-0.8l0.1-0.2c0.1-0.2,0.2-0.5,0.1-0.6c-0.1-0.1-0.2-0.3-0.4-0.3
				c-0.1,0-0.1,0-0.4-0.1c-0.1,0-2.4-0.4-3.8,1.3c0,0,0,0,0,0.1l-0.1,0.1c0,0,0,0-0.1,0.1c-0.3,0.4-0.6,0.9-0.9,1.5
				c-1.1,3.2-1.8,5.9-1.9,8.1l0,0.2l0,0.1l0.2,0l0,0c0,0,0,0,0,0h0l-0.3,0.1l0,0.1c0,0,0,0,0,0l0,0.1h0c0,0,0,0,0,0
				c0,0.2,0,0.5,0,0.7c0,0,0,0,0,0c0,0.9,0.2,1.4,0.2,1.6c0.2,0.4,0.4,0.7,0.7,0.9c0.3,0.2,0.5,0.3,0.9,0.3c0.1,0,0.1,0,0.2,0
				c0.1,0,2.6-0.3,5.2-4.1c0,0,0,0,0,0c1.2-1.7,2-3.5,2-3.6c0.3-0.6,0.4-0.9,0.2-1.1C68.3,132.4,68.1,132.4,66.5,134.3z"/>
			<path class="st3" d="M69,120.2c-0.2-0.1-0.4-0.1-0.7-0.2c0,0,0,0,0,0l-0.3,0c-0.3,0-0.5,0-0.8,0c-1,0.1-1.6,0.4-1.9,0.6
				c-0.1,0.1-0.2,0.2-0.3,0.3c-0.3,0.3-0.5,0.6-0.5,0.6c0,0,0,0,0,0c-0.5,0.8-0.9,1.9-0.9,2.3c0,0.2,0.1,0.4,0.2,0.5
				c0.3,0.3,1,0.4,1.7,0.4c0.6,0,1.1-0.1,1.4-0.2c0.5-0.2,1.2-1,2.1-2.6c0.1-0.2,0.2-0.4,0.3-0.5c0,0,0,0,0,0
				c0.1-0.3,0.2-0.6,0.1-0.8C69.4,120.4,69.2,120.3,69,120.2z"/>
			<path class="st3" d="M57.5,132.9c-0.1-0.1-0.5-0.3-0.5-0.4l-0.1-0.1c-0.1,0-0.2-0.1-0.3-0.1c-0.1,0-0.1-0.1-0.2-0.1
				c-0.2-0.2-0.4-0.3-0.4-0.3c-0.3-0.2-0.4-0.4-0.3-0.7c0-0.1,0.1-0.2,0.2-0.3c0,0,0,0,0,0c0.2-0.2,0.4-0.4,0.7-0.6
				c0.1-0.1,0.2-0.1,0.2-0.1l0.1-0.1c0.4-0.2,0.9-0.4,1.4-0.6c0,0,0,0,0,0c0.1,0,0.9-0.3,1.2-0.4l0.1,0c0.2,0,0.5-0.1,0.7-0.3
				c0.1-0.1,0.2-0.3,0.3-0.5c0,0,0-0.1,0-0.1c0-0.1,0-0.3,0-0.4c0,0,0,0,0,0c-0.1-0.2-0.1-0.4-0.3-0.7c0,0,0,0,0,0c0,0,0,0,0,0
				c0,0,0-0.1-0.1-0.1c-0.1-0.2-0.2-0.3-0.4-0.4c-1.5-1.1-4.8,0.6-4.9,0.6c-0.8,0.4-1.5,0.9-2,1.4c-0.5,0.5-0.8,1-0.9,1.6
				c-0.2,0.6-0.2,1.3,0,1.9c0.1,0.3,0.2,0.5,0.3,0.7c0.1,0.1,0.1,0.2,0.1,0.2c0,0,0,0,0,0c0.3,0.4,0.7,0.8,1.3,1.2
				c0,0,0.1,0.1,0.3,0.1c0.4,0.2,1,0.4,1.2,1c0.2,0.4,0.1,0.9-0.2,1.5c0,0,0,0,0,0c-0.2,0.6-1,2.3-2,2.6c-0.3,0.1-0.6,0-0.9-0.2
				c0,0,0,0,0,0c-0.3-0.3-0.1-1,0-1.3c0,0,0-0.1,0-0.1c0.1-0.3,0.2-0.5,0.3-0.6c0.1-0.2,0.2-0.4,0.1-0.7c0,0,0,0,0-0.1
				c-0.1-0.2-0.3-0.4-0.7-0.5l-0.1,0c0,0-0.1,0-0.2,0c0,0-0.1,0-0.1,0c-1.1,0.1-1.7,1.1-2.1,2c0,0,0,0,0,0l0,0.1
				c-0.2,0.5-0.3,0.8-0.3,0.8c0,0,0,0,0,0c-0.3,1.1-0.3,2,0.2,2.6c0.6,1,1.9,1.2,2.3,1.2l0.1,0c0.2,0,0.4,0,0.6,0c3.9,0,6-4,6-4.1
				c0,0,0,0,0,0C60,135.4,58.3,133.6,57.5,132.9z"/>
			<path class="st3" d="M97.1,122.8c-0.1-0.2-0.1-0.4-0.3-0.7c0,0,0,0,0,0c0,0,0,0,0,0c0,0,0-0.1-0.1-0.1c-0.1-0.2-0.2-0.3-0.4-0.4
				c-1.5-1.1-4.8,0.6-4.9,0.6c-0.8,0.4-1.5,0.9-2,1.4c-0.5,0.5-0.8,1-0.9,1.6c-0.2,0.6-0.2,1.3,0,1.9c0.1,0.3,0.2,0.5,0.3,0.7
				c0,0.1,0.1,0.1,0.1,0.1c0,0,0,0,0,0.1c0,0,0,0,0,0c0.3,0.4,0.7,0.8,1.3,1.2c0,0,0.1,0.1,0.3,0.1c0.4,0.2,1,0.4,1.2,1
				c0.2,0.4,0.1,0.9-0.2,1.5c0,0,0,0,0,0c-0.2,0.6-1,2.3-2,2.6c-0.3,0.1-0.6,0-0.9-0.2c0,0,0,0,0,0c-0.3-0.3-0.1-1,0-1.3
				c0,0,0-0.1,0-0.1c0.1-0.3,0.2-0.5,0.3-0.6c0.1-0.1,0.2-0.4,0.1-0.7c0,0,0,0,0-0.1c-0.1-0.3-0.5-0.4-0.7-0.5c-0.1,0-0.1,0-0.1,0
				c0,0-0.1,0-0.2,0c0,0-0.1,0-0.1,0c-1.1,0.1-1.7,1.1-2.1,2c0,0,0,0,0,0l0,0.1c-0.1,0.2-0.2,0.4-0.2,0.6c-1.5,1.2-2.9,1.6-4,1.9
				c-0.6,0.1-1,0-1.3-0.2c-0.4-0.4-0.4-1.3-0.2-2l0.1-0.2c0-0.1,0.1-0.2,0.1-0.3l0,0c0.6,0.4,1.7,0.8,2.8,0.6c1.1-0.2,2-1.1,2.7-2.4
				c0,0,2.3-3.5,0.4-5.6c0,0,0,0,0,0c-0.3-0.3-0.7-0.6-1.2-0.8c-0.1,0-0.2-0.1-0.4-0.1c-3-0.5-5.5,0.7-7.1,3.4
				c-0.6,1-1.1,2.3-1.4,3.7c0,0.1,0,0.2-0.1,0.3c-0.1,0.5-0.2,0.9-0.3,1.4c-0.1,2,0.7,3.3,1.1,3.7c0,0,0,0,0,0l0.2,0.2
				c0.2,0.2,0.4,0.3,0.6,0.5l0.2,0.1l0.1,0c0.1,0.1,0.3,0.2,0.5,0.3c0.4,0.2,0.9,0.4,1.3,0.4c0,0,0.1,0,0.1,0c0,0,0.1,0,0.1,0
				c0.2,0,0.4,0,0.6,0c0.2,0,0.3,0,0.4,0l0.1,0c2.7-0.2,4.2-1.6,4.4-1.7c0.1-0.1,0.3-0.3,0.4-0.4c0.6,1,1.9,1.2,2.4,1.3l0.1,0
				c4.3,0.5,6.7-4,6.7-4c0,0,0,0,0,0c2-3.1,0.4-5-0.4-5.6c-0.1-0.1-0.5-0.4-0.5-0.4l-0.1-0.1c-0.1,0-0.2-0.1-0.3-0.1
				c-0.1,0-0.1-0.1-0.2-0.1c-0.2-0.2-0.4-0.3-0.4-0.3c-0.3-0.2-0.4-0.4-0.3-0.7c0-0.1,0.1-0.2,0.2-0.3c0,0,0,0,0,0
				c0.2-0.2,0.4-0.4,0.7-0.6c0.1-0.1,0.2-0.1,0.2-0.1l0.1-0.1c0.4-0.2,0.9-0.4,1.4-0.6c0,0,0,0,0,0c0.1,0,0.9-0.3,1.2-0.4l0.1,0
				c0.2,0,0.5-0.1,0.7-0.3c0.1-0.1,0.2-0.3,0.3-0.5c0,0,0-0.1,0-0.1C97.2,123,97.1,122.9,97.1,122.8
				C97.1,122.8,97.1,122.8,97.1,122.8z M81.2,129.6c0.3-1.1,0.7-1.8,1.1-2.1c0.3-0.2,0.6-0.1,0.8,0c0.1,0,0.1,0,0.1,0
				c0.2,0.2-0.2,1.7-0.5,2.2c-0.3,0.5-0.7,0.5-1.2,0.3c-0.1,0-0.2,0-0.2-0.1c-0.1,0-0.1-0.1-0.2-0.1
				C81.1,129.7,81.1,129.6,81.2,129.6C81.2,129.6,81.2,129.6,81.2,129.6z M96.6,122.1L96.6,122.1L96.6,122.1L96.6,122.1z"/>
			<path class="st3" d="M166.3,123.4C166.3,123.4,166.3,123.4,166.3,123.4c-0.2-0.1-0.5-0.2-0.8,0.2c0,0,0,0,0,0c0,0,0,0,0,0
				l-0.1,0.1c-0.2,0.3-0.4,0.5-0.6,0.8c-1.6,1.6-3.4,2-4.6,2.3c-0.6,0.1-1,0-1.3-0.2c-0.4-0.4-0.4-1.3-0.2-2l0.1-0.2
				c0-0.1,0.1-0.2,0.1-0.3l0,0c0.6,0.4,1.7,0.8,2.8,0.6c1.1-0.2,2-1.1,2.7-2.4c0,0,2.3-3.5,0.4-5.6c0,0,0,0,0,0
				c-0.3-0.3-0.7-0.6-1.2-0.8c-0.1,0-0.2-0.1-0.4-0.1c-3-0.5-5.5,0.7-7.1,3.4c-0.6,1-1.1,2.3-1.4,3.7c0,0.1,0,0.2-0.1,0.3
				c-0.1,0.5-0.2,0.9-0.3,1.4c0,0.2,0,0.5,0,0.8c-0.2,0.2-0.3,0.4-0.5,0.6c-0.5,0.5-1,0.9-1.6,1.2c0,0-2.1,1.3-3.5,1.2
				c-0.6,0-1-0.3-1.1-1c-0.3-1.7,0.5-5.3,2-6.5c0.6-0.5,1.4-0.6,2.1-0.3c0,0,0.7,0.5,0.4,1.1c-0.1,0.2-0.2,0.5,0,0.7
				c0.2,0.2,0.5,0.2,0.8,0.1c1.2-0.3,2-1.3,1.9-2.4h0c0,0,0,0,0-0.1c0-0.2-0.1-0.4-0.2-0.5c-0.3-0.7-0.7-1.2-1.4-1.6
				c-0.3-0.2-0.6-0.3-1-0.3c-0.3-0.1-0.7-0.1-1-0.1c-0.2,0-0.5,0-0.9,0.1c-0.1,0-0.2,0-0.2,0c-0.4,0.1-0.8,0.2-1.3,0.4l0,0
				c0,0,0,0-0.1,0c-0.3,0.1-0.5,0.3-0.7,0.4c0,0-0.1,0.1-0.1,0.1c0,0,0,0-0.1,0.1c-1.9,1.3-3.2,3.1-3.8,5.4c0,0-0.1,0.1-0.1,0.1
				c0,0-1.9,2.8-4.2,4.7c-0.7,0.5-1.2,0.7-1.4,0.6c-0.4-0.3-0.4-1.4-0.3-2.4l0-0.1c1.1-1.1,2.2-2.3,3.4-3.6c0.3-0.3,0.6-0.6,0.9-1
				l0.3-0.4c2.4-2.9,5-6.4,6-12.1c0.4-2.3,0-3.8-1.1-4.5c-1.3-0.8-3.3-0.1-3.9,0.4c-0.2,0.2-2.4,1.8-4.6,5.1l0,0c0,0,0,0,0,0
				c-0.9,1.4-1.7,2.9-2.4,4.4l-0.1,0.3c-1,2-1.8,3.9-2.3,5.6c-0.4,1-0.6,1.8-0.7,2.5c-0.3,1.5-0.4,2.8-0.4,4
				c-0.1,0.1-0.3,0.3-0.5,0.5c-1.8,1.5-3.2,2.3-3.8,2c-0.2-0.1-0.3-0.3-0.4-0.8c0,0-0.2-1,0.7-3.5c0.1-0.3,0.3-0.5,0.4-0.8
				c0.2-0.5,0.5-1.1,0.9-1.8c0.1-0.1,0.2-0.3,0.2-0.4c0.4-0.7,1-1.7,0.6-2.3c-0.2-0.4-0.6-0.5-1.3-0.5c0,0-0.1,0-0.1,0
				c-2.1-0.2-3.2,1.7-5,4.6c-0.8,1.4-1.7,2.9-3,4.6l-0.1,0.2c-0.2,0.3-0.4,0.6-0.5,0.7c-0.4,0.1-0.6,0-0.6-0.1l0-0.1c0,0,0,0,0-0.1
				c-0.2-0.4-0.1-1.2,0.2-2.3c0.1-0.5,0.3-1,0.5-1.6l-0.2-0.1l0,0l0.3,0c1.1-2.4,3.1-4.5,3.1-4.6c0.5-0.5,0.3-1,0.1-1.2
				c-0.2-0.1-0.3-0.3-0.5-0.4c-0.1-0.1-0.3-0.1-0.4-0.2c-0.1,0-0.2-0.1-0.3-0.1c-0.1,0-0.2,0-0.3,0c-1,0-2.1,0.7-3.2,2.4
				c-0.9,1.4-2.5,4.1-3.2,6.9l-0.1,0.4c0,0.2-0.1,0.3-0.1,0.5c0,0.2-0.1,0.4-0.1,0.6c-0.3,0.4-0.7,0.7-1.1,1
				c-0.6,0.4-0.9,0.5-1.1,0.4c-0.1-0.1-0.2-0.4-0.1-1.2c0.1-0.4,0.2-1.3,0.7-2.9c0,0,0,0,0,0c0.5-1.9,1.4-4.2,2.1-5.8
				c0.1-0.2,0.2-0.4,0.2-0.6l0.1-0.1c0.1-0.3,0.2-0.5,0.3-0.8c0.1-0.3,0.2-0.5,0.3-0.7l0.1-0.1c0.2-0.4,0.3-0.7,0.3-0.7c0,0,0,0,0,0
				c0.4-0.9,0.8-1.8,1.3-2.7l0.6-1.1c0.3-0.5,0.5-0.8,0.9-1.4c0.2-0.3,0.5-0.8,0.9-1.4c0.1-0.1,0.1-0.2,0.1-0.3
				c0.3-0.5,0.4-1.2,0-1.5c-0.1-0.1-0.1-0.1-0.3-0.2c0,0-2.2-1.4-4.3,1.7l-0.2,0.4c-0.5,0.7-0.9,1.6-1.5,2.7
				c-0.9,2.2-1.8,4.4-2.5,6.5c-0.9-0.2-2.1-0.1-3.3,0.2c-4.4,1.2-6.9,8.1-7.1,10.5c-0.1,1.2,0.4,2.4,1.4,3.2
				c0.7,0.6,1.6,0.8,2.4,0.6c0.1,0,0.3-0.1,0.4-0.1c0.2-0.1,0.3-0.2,0.5-0.3l0.2-0.1c0.6-0.4,1.4-1,2.3-2.2c0.1,0.9,0.4,2.4,1.5,2.9
				c0.2,0.1,0.5,0.2,0.8,0.2c1.2,0,2.9-0.9,5-2.8c0.3,0.3,0.9,0.7,1.8,0.7c0,0,0.1,0,0.1,0l0.2,0c0.1,0,0.1,0,0.1,0c0,0,0,0,0.1,0
				l0.6-0.1l0.6-0.2c0,0,0.1,0,0.1,0c0.3-0.1,1.1-0.5,2.2-1.8c0.3-0.4,0.8-1.2,1.3-2.1c0.3-0.5,0.7-1.1,1-1.7c0,0.1,0,0.3-0.1,0.4
				c-0.1,0.4-0.1,0.8-0.1,1.2c0,0.1,0,0.3,0,0.6c0,0.4,0.1,0.8,0.3,1.2c0.3,0.6,0.7,1.1,1.2,1.5c0.3,0.3,0.7,0.4,1.1,0.5
				c0.3,0.1,0.7,0.1,1.1,0.1c0.4-0.1,0.8-0.2,1.3-0.5c0,0,0.1,0,0.1-0.1c0,0,0,0,0.2-0.1c0.2-0.1,0.3-0.2,0.5-0.4c0,0,0.1,0,0.1,0
				c0.8-0.6,1.8-1.4,2.8-2.4c0.5,1,1.4,1.4,1.4,1.4c0.1,0.1,0.2,0.1,0.3,0.2c1.1,0.6,2.4,0.8,3.7,0.4c0,0,0,0,0,0c0,0,0.1,0,0.3-0.1
				c0.4-0.1,0.8-0.3,1.2-0.6c0.8-0.5,2-1.4,3.1-2.9c0,0.1,0.1,0.1,0.1,0.2c0,0,0,0,0,0.1l0,0.1c0,0,0.1,0.1,0.1,0.1c0,0,0,0.1,0,0.1
				c0.3,0.6,0.8,1.1,1.4,1.5c0.2,0.2,0.5,0.3,0.7,0.4c0.2,0.1,0.4,0.2,0.5,0.2c0,0,0.1,0,0.1,0h0c1.2,0.4,2.6,0.2,4.1-0.4l0.2-0.1
				c0.4-0.2,0.8-0.4,1.2-0.7c0.8-0.6,1.9-1.4,2.5-2.5c0.2,0.3,0.4,0.6,0.5,0.7c0,0,0.1,0.1,0.1,0.1l0.2,0.2c0.2,0.2,0.4,0.3,0.6,0.5
				c0,0,0.1,0.1,0.1,0.1l0.1,0.1l0.1,0c0.1,0.1,0.3,0.2,0.5,0.3c0.4,0.2,0.9,0.4,1.3,0.4l0.2,0c0.2,0,0.4,0,0.6,0c0.2,0,0.3,0,0.4,0
				l0.1,0c2.6-0.2,4.1-1.5,4.4-1.7c0.2-0.2,0.4-0.4,0.5-0.6l0.3-0.3c0.2-0.2,0.3-0.3,0.5-0.6l0.4-0.6c0,0,0-0.1,0-0.1
				c0,0,0-0.1,0-0.1l0.2-0.4c0.2-0.4,0.5-0.8,0.6-1.1l0,0c0,0,0,0,0,0c0,0,0-0.1,0.1-0.1C166.8,123.8,166.7,123.5,166.3,123.4z
				 M166.2,123.6L166.2,123.6L166.2,123.6L166.2,123.6z M112.3,124.4C112.3,124.4,112.3,124.4,112.3,124.4c-0.3,0.9-0.5,1.7-0.7,2.4
				c-0.4,1-0.9,1.8-1.8,3c-0.8,1-2.4,2.4-2.7,2.4c0,0,0,0,0,0c-0.1-0.1-0.1-1,0-1.9c0.3-2.4,1.7-4.7,3.6-5.9
				c0.2-0.1,0.4-0.3,0.6-0.3c0.3-0.2,0.7-0.2,0.9-0.2c0.1,0,0.2,0,0.2,0.1C112.4,123.8,112.4,124,112.3,124.4z M160.1,120.9
				C160.1,120.9,160.1,120.9,160.1,120.9c0.3-1.1,0.7-1.8,1.1-2.1c0.3-0.2,0.6-0.1,0.8,0c0.1,0,0.1,0,0.1,0c0.2,0.2-0.2,1.7-0.5,2.2
				c-0.3,0.5-0.7,0.5-1.2,0.3c-0.1,0-0.2,0-0.2-0.1c-0.1,0-0.1-0.1-0.2-0.1C160,121.1,160.1,121,160.1,120.9z M145.5,110.1
				L145.5,110.1c0.2-0.3,0.3-0.4,0.4-0.5c0,0.1,0,0.5-0.3,1.6c-0.1,0.2-0.1,0.4-0.2,0.6c0,0,0,0.1-0.1,0.3c-0.1,0.5-0.3,1-0.5,1.5
				c-0.3,0.7-0.5,1.3-0.8,1.8c-1.3,2.8-3.1,5.4-5.4,7.8c0.3-1,0.6-2,0.9-3l0.2-0.6c0.1-0.3,0.2-0.5,0.3-0.7c0,0,0,0,0,0l0.1-0.3
				c0,0,0-0.1,0-0.1l0.7-1.4l0.1-0.1C143,113.4,145.5,110.2,145.5,110.1z M119.3,133.5L119.3,133.5L119.3,133.5L119.3,133.5z
				 M144.3,128.8L144.3,128.8L144.3,128.8L144.3,128.8z M155.7,128.1L155.7,128.1L155.7,128.1L155.7,128.1z"/>
		</g>
	</g>
	<path class="st0" d="M216.2,85.5c-2.8,0-5,2.1-5,4.9c0,2.7,2.2,4.9,5,4.9c2.8,0,5-2.1,5-4.9C221.1,87.6,219,85.5,216.2,85.5z"/>
	<g>
		<path class="st3" d="M220.1,90.3c0,2.2-1.7,3.9-4,3.9c-2.2,0-4-1.7-4-3.9s1.8-3.9,4-3.9C218.4,86.5,220.1,88.2,220.1,90.3z
			 M213.2,90.3c0,1.7,1.3,3.1,3,3.1c1.7,0,2.9-1.4,2.9-3.1c0-1.7-1.3-3.1-3-3.1C214.5,87.2,213.2,88.6,213.2,90.3z M215.6,92.3h-0.9
			v-3.9c0.4,0,0.8-0.1,1.5-0.1c0.7,0,1.1,0.1,1.3,0.3c0.2,0.2,0.4,0.4,0.4,0.8c0,0.5-0.4,0.8-0.8,0.9v0c0.4,0.1,0.6,0.4,0.7,0.9
			c0.1,0.6,0.2,0.8,0.3,0.9h-0.9c-0.1-0.1-0.2-0.5-0.3-0.9c-0.1-0.4-0.3-0.6-0.8-0.6h-0.4V92.3z M215.6,90.2h0.4
			c0.5,0,0.9-0.2,0.9-0.6c0-0.4-0.3-0.6-0.8-0.6c-0.2,0-0.4,0-0.5,0V90.2z"/>
	</g>
</g>
</svg>
